# xmcd
#
# Track frame offsets: 
#        150
#        11815
#        25628
#        36163
#        47292
#        57300
#        67458
#        76952
#        91825
#        103953
#        114670
#        125977
#        137967
#        151162
#        163080
#        172772
#
# Disc length: 2565 seconds
#
# Revision: 0
# Processed by: cddbd v1.5.2PL0 Copyright (c) Steve Scherf et al.
# Submitted via: ExactAudioCopy v0.99pb4
#
DISCID=d70a0310
DTITLE=Willie Nelson - On the road again: the best of [CD 1)
DYEAR=2010
DGENRE=Country
TTITLE0=On the road again
TTITLE1=My heroes have always been cowboys
TTITLE2=Blue eyes crying in the rain
TTITLE3=Phases and stages
TTITLE4=Mr. Record man
TTITLE5=I gotta get  drunk
TTITLE6=Within your crowd
TTITLE7=Little things
TTITLE8=Born to loose
TTITLE9=Suffer in silence
TTITLE10=Crazy arms
TTITLE11=Funny how time slips away
TTITLE12=My own peculiar way
TTITLE13=Laying my burdens down
TTITLE14=San Antonio rose
TTITLE15=Georgia on my mind
EXTD=
EXTT0=
EXTT1=
EXTT2=
EXTT3=
EXTT4=
EXTT5=
EXTT6=
EXTT7=
EXTT8=
EXTT9=
EXTT10=
EXTT11=
EXTT12=
EXTT13=
EXTT14=
EXTT15=
PLAYORDER=
